<svg xmlns="http://www.w3.org/2000/svg" viewBox="0 0 800 685" role="img" aria-label="Entry-week cohort heatmap, counts and fixed denominators"><title>Entry-week cohort heatmap, counts and fixed denominators</title><style>text{font-family:system-ui,sans-serif;fill:#172e39;font-size:12px} .muted{fill:#56717a}.axis{stroke:#ccd9da}</style><text x="10" y="18">Entry week (N) / weeks since campaign end</text><text x="213" y="45">W1</text><text x="281" y="45">W2</text><text x="349" y="45">W3</text><text x="417" y="45">W4</text><text x="485" y="45">W5</text><text x="553" y="45">W6</text><text x="621" y="45">W7</text><text x="689" y="45">W8</text><text x="10" y="75">2023-11-13 (1785)</text><rect x="195" y="57" width="64" height="26" rx="3" fill="#147d80" opacity="0.202296918767507"/><text x="202" y="75">226/1785</text><rect x="263" y="57" width="64" height="26" rx="3" fill="#147d80" opacity="0.1957422969187675"/><text x="270" y="75">208/1785</text><rect x="331" y="57" width="64" height="26" rx="3" fill="#147d80" opacity="0.21249299719887954"/><text x="338" y="75">254/1785</text><rect x="399" y="57" width="64" height="26" rx="3" fill="#147d80" opacity="0.19173669467787113"/><text x="406" y="75">197/1785</text><rect x="467" y="57" width="64" height="26" rx="3" fill="#147d80" opacity="0.1866386554621849"/><text x="474" y="75">183/1785</text><rect x="535" y="57" width="64" height="26" rx="3" fill="#147d80" opacity="0.18627450980392157"/><text x="542" y="75">182/1785</text><rect x="603" y="57" width="64" height="26" rx="3" fill="#147d80" opacity="0.1749859943977591"/><text x="610" y="75">151/1785</text><rect x="671" y="57" width="64" height="26" rx="3" fill="#147d80" opacity="0.19173669467787113"/><text x="678" y="75">197/1785</text><text x="10" y="105">2023-11-20 (1103)</text><rect x="195" y="87" width="64" height="26" rx="3" fill="#147d80" opacity="0.17244786944696283"/><text x="202" y="105">89/1103</text><rect x="263" y="87" width="64" height="26" rx="3" fill="#147d80" opacity="0.17067996373526745"/><text x="270" y="105">86/1103</text><rect x="331" y="87" width="64" height="26" rx="3" fill="#147d80" opacity="0.18718041704442429"/><text x="338" y="105">114/1103</text><rect x="399" y="87" width="64" height="26" rx="3" fill="#147d80" opacity="0.16066183136899365"/><text x="406" y="105">69/1103</text><rect x="467" y="87" width="64" height="26" rx="3" fill="#147d80" opacity="0.15948322756119673"/><text x="474" y="105">67/1103</text><rect x="535" y="87" width="64" height="26" rx="3" fill="#147d80" opacity="0.16478694469628286"/><text x="542" y="105">76/1103</text><rect x="603" y="87" width="64" height="26" rx="3" fill="#147d80" opacity="0.1459292837715322"/><text x="610" y="105">44/1103</text><rect x="671" y="87" width="64" height="26" rx="3" fill="#147d80" opacity="0.16773345421577515"/><text x="678" y="105">81/1103</text><text x="10" y="135">2023-11-27 (1021)</text><rect x="195" y="117" width="64" height="26" rx="3" fill="#147d80" opacity="0.1601077375122429"/><text x="202" y="135">63/1021</text><rect x="263" y="117" width="64" height="26" rx="3" fill="#147d80" opacity="0.15246816846229186"/><text x="270" y="135">51/1021</text><rect x="331" y="117" width="64" height="26" rx="3" fill="#147d80" opacity="0.16711067580803135"/><text x="338" y="135">74/1021</text><rect x="399" y="117" width="64" height="26" rx="3" fill="#147d80" opacity="0.14864838393731636"/><text x="406" y="135">45/1021</text><rect x="467" y="117" width="64" height="26" rx="3" fill="#147d80" opacity="0.1518315377081293"/><text x="474" y="135">50/1021</text><rect x="535" y="117" width="64" height="26" rx="3" fill="#147d80" opacity="0.1518315377081293"/><text x="542" y="135">50/1021</text><rect x="603" y="117" width="64" height="26" rx="3" fill="#147d80" opacity="0.14610186092066602"/><text x="610" y="135">41/1021</text><rect x="671" y="117" width="64" height="26" rx="3" fill="#147d80" opacity="0.16392752203721841"/><text x="678" y="135">69/1021</text><text x="10" y="165">2023-12-04 (1273)</text><rect x="195" y="147" width="64" height="26" rx="3" fill="#147d80" opacity="0.16391201885310291"/><text x="202" y="165">86/1273</text><rect x="263" y="147" width="64" height="26" rx="3" fill="#147d80" opacity="0.1608483896307934"/><text x="270" y="165">80/1273</text><rect x="331" y="147" width="64" height="26" rx="3" fill="#147d80" opacity="0.16799685781618223"/><text x="338" y="165">94/1273</text><rect x="399" y="147" width="64" height="26" rx="3" fill="#147d80" opacity="0.15063629222309505"/><text x="406" y="165">60/1273</text><rect x="467" y="147" width="64" height="26" rx="3" fill="#147d80" opacity="0.15421052631578946"/><text x="474" y="165">67/1273</text><rect x="535" y="147" width="64" height="26" rx="3" fill="#147d80" opacity="0.1491044776119403"/><text x="542" y="165">57/1273</text><rect x="603" y="147" width="64" height="26" rx="3" fill="#147d80" opacity="0.14195600942655145"/><text x="610" y="165">43/1273</text><rect x="671" y="147" width="64" height="26" rx="3" fill="#147d80" opacity="0.1526787117046347"/><text x="678" y="165">64/1273</text><text x="10" y="195">2023-12-11 (860)</text><rect x="195" y="177" width="64" height="26" rx="3" fill="#147d80" opacity="0.1577906976744186"/><text x="202" y="195">50/860</text><rect x="263" y="177" width="64" height="26" rx="3" fill="#147d80" opacity="0.1630813953488372"/><text x="270" y="195">57/860</text><rect x="331" y="177" width="64" height="26" rx="3" fill="#147d80" opacity="0.17517441860465116"/><text x="338" y="195">73/860</text><rect x="399" y="177" width="64" height="26" rx="3" fill="#147d80" opacity="0.14796511627906977"/><text x="406" y="195">37/860</text><rect x="467" y="177" width="64" height="26" rx="3" fill="#147d80" opacity="0.15703488372093022"/><text x="474" y="195">49/860</text><rect x="535" y="177" width="64" height="26" rx="3" fill="#147d80" opacity="0.14494186046511628"/><text x="542" y="195">33/860</text><rect x="603" y="177" width="64" height="26" rx="3" fill="#147d80" opacity="0.14343023255813953"/><text x="610" y="195">31/860</text><rect x="671" y="177" width="64" height="26" rx="3" fill="#147d80" opacity="0.14872093023255814"/><text x="678" y="195">38/860</text><text x="10" y="225">2023-12-18 (938)</text><rect x="195" y="207" width="64" height="26" rx="3" fill="#147d80" opacity="0.1504904051172708"/><text x="202" y="225">44/938</text><rect x="263" y="207" width="64" height="26" rx="3" fill="#147d80" opacity="0.14425373134328356"/><text x="270" y="225">35/938</text><rect x="331" y="207" width="64" height="26" rx="3" fill="#147d80" opacity="0.15880597014925374"/><text x="338" y="225">56/938</text><rect x="399" y="207" width="64" height="26" rx="3" fill="#147d80" opacity="0.14078891257995735"/><text x="406" y="225">30/938</text><rect x="467" y="207" width="64" height="26" rx="3" fill="#147d80" opacity="0.1400959488272921"/><text x="474" y="225">29/938</text><rect x="535" y="207" width="64" height="26" rx="3" fill="#147d80" opacity="0.14286780383795308"/><text x="542" y="225">33/938</text><rect x="603" y="207" width="64" height="26" rx="3" fill="#147d80" opacity="0.1387100213219616"/><text x="610" y="225">27/938</text><rect x="671" y="207" width="64" height="26" rx="3" fill="#147d80" opacity="0.1380170575692964"/><text x="678" y="225">26/938</text><text x="10" y="255">2023-12-25 (833)</text><rect x="195" y="237" width="64" height="26" rx="3" fill="#147d80" opacity="0.15589435774309723"/><text x="202" y="255">46/833</text><rect x="263" y="237" width="64" height="26" rx="3" fill="#147d80" opacity="0.14653061224489794"/><text x="270" y="255">34/833</text><rect x="331" y="237" width="64" height="26" rx="3" fill="#147d80" opacity="0.15433373349339735"/><text x="338" y="255">44/833</text><rect x="399" y="237" width="64" height="26" rx="3" fill="#147d80" opacity="0.13716686674669867"/><text x="406" y="255">22/833</text><rect x="467" y="237" width="64" height="26" rx="3" fill="#147d80" opacity="0.14496998799519809"/><text x="474" y="255">32/833</text><rect x="535" y="237" width="64" height="26" rx="3" fill="#147d80" opacity="0.13638655462184873"/><text x="542" y="255">21/833</text><rect x="603" y="237" width="64" height="26" rx="3" fill="#147d80" opacity="0.1356062424969988"/><text x="610" y="255">20/833</text><rect x="671" y="237" width="64" height="26" rx="3" fill="#147d80" opacity="0.14106842737094838"/><text x="678" y="255">27/833</text><text x="10" y="285">2024-01-01 (1571)</text><rect x="195" y="267" width="64" height="26" rx="3" fill="#147d80" opacity="0.1564099299809039"/><text x="202" y="285">88/1571</text><rect x="263" y="267" width="64" height="26" rx="3" fill="#147d80" opacity="0.14358370464672182"/><text x="270" y="285">57/1571</text><rect x="331" y="267" width="64" height="26" rx="3" fill="#147d80" opacity="0.1535136855506047"/><text x="338" y="285">81/1571</text><rect x="399" y="267" width="64" height="26" rx="3" fill="#147d80" opacity="0.1402737110120942"/><text x="406" y="285">49/1571</text><rect x="467" y="267" width="64" height="26" rx="3" fill="#147d80" opacity="0.1394462126034373"/><text x="474" y="285">47/1571</text><rect x="535" y="267" width="64" height="26" rx="3" fill="#147d80" opacity="0.14068746021642264"/><text x="542" y="285">50/1571</text><rect x="603" y="267" width="64" height="26" rx="3" fill="#147d80" opacity="0.13530872056015275"/><text x="610" y="285">37/1571</text><rect x="671" y="267" width="64" height="26" rx="3" fill="#147d80" opacity="0.14275620623806493"/><text x="678" y="285">55/1571</text><text x="10" y="315">2024-01-08 (1761)</text><rect x="195" y="297" width="64" height="26" rx="3" fill="#147d80" opacity="0.1524815445769449"/><text x="202" y="315">88/1761</text><rect x="263" y="297" width="64" height="26" rx="3" fill="#147d80" opacity="0.1469449176604202"/><text x="270" y="315">73/1761</text><rect x="331" y="297" width="64" height="26" rx="3" fill="#147d80" opacity="0.1587563884156729"/><text x="338" y="315">105/1761</text><rect x="399" y="297" width="64" height="26" rx="3" fill="#147d80" opacity="0.1476831345826235"/><text x="406" y="315">75/1761</text><rect x="467" y="297" width="64" height="26" rx="3" fill="#147d80" opacity="0.1484213515048268"/><text x="474" y="315">77/1761</text><rect x="535" y="297" width="64" height="26" rx="3" fill="#147d80" opacity="0.14731402612152186"/><text x="542" y="315">74/1761</text><rect x="603" y="297" width="64" height="26" rx="3" fill="#147d80" opacity="0.13882453151618399"/><text x="610" y="315">51/1761</text><rect x="671" y="297" width="64" height="26" rx="3" fill="#147d80" opacity="0.14325383304940376"/><text x="678" y="315">63/1761</text><text x="10" y="345">2024-01-15 (861)</text><rect x="195" y="327" width="64" height="26" rx="3" fill="#147d80" opacity="0.14642276422764228"/><text x="202" y="345">35/861</text><rect x="263" y="327" width="64" height="26" rx="3" fill="#147d80" opacity="0.14038327526132405"/><text x="270" y="345">27/861</text><rect x="331" y="327" width="64" height="26" rx="3" fill="#147d80" opacity="0.14340301974448316"/><text x="338" y="345">31/861</text><rect x="399" y="327" width="64" height="26" rx="3" fill="#147d80" opacity="0.13585365853658538"/><text x="406" y="345">21/861</text><rect x="467" y="327" width="64" height="26" rx="3" fill="#147d80" opacity="0.1381184668989547"/><text x="474" y="345">24/861</text><rect x="535" y="327" width="64" height="26" rx="3" fill="#147d80" opacity="0.14491289198606272"/><text x="542" y="345">33/861</text><rect x="603" y="327" width="64" height="26" rx="3" fill="#147d80" opacity="0.13283391405342623"/><text x="610" y="345">17/861</text><rect x="671" y="327" width="64" height="26" rx="3" fill="#147d80" opacity="0.13207897793263645"/><text x="678" y="345">16/861</text><text x="10" y="375">2024-01-22 (1277)</text><rect x="195" y="357" width="64" height="26" rx="3" fill="#147d80" opacity="0.1373061863743148"/><text x="202" y="375">34/1277</text><rect x="263" y="357" width="64" height="26" rx="3" fill="#147d80" opacity="0.14036021926389977"/><text x="270" y="375">40/1277</text><rect x="331" y="357" width="64" height="26" rx="3" fill="#147d80" opacity="0.14850430696945965"/><text x="338" y="375">56/1277</text><rect x="399" y="357" width="64" height="26" rx="3" fill="#147d80" opacity="0.13985121378230225"/><text x="406" y="375">39/1277</text><rect x="467" y="357" width="64" height="26" rx="3" fill="#147d80" opacity="0.13628817541111982"/><text x="474" y="375">32/1277</text><rect x="535" y="357" width="64" height="26" rx="3" fill="#147d80" opacity="0.13476115896632732"/><text x="542" y="375">29/1277</text><rect x="603" y="357" width="64" height="26" rx="3" fill="#147d80" opacity="0.1281440877055599"/><text x="610" y="375">16/1277</text><rect x="671" y="357" width="64" height="26" rx="3" fill="#147d80" opacity="0.13883320281910727"/><text x="678" y="375">37/1277</text><text x="10" y="405">2024-01-29 (1312)</text><rect x="195" y="387" width="64" height="26" rx="3" fill="#147d80" opacity="0.14179878048780487"/><text x="202" y="405">44/1312</text><rect x="263" y="387" width="64" height="26" rx="3" fill="#147d80" opacity="0.1408079268292683"/><text x="270" y="405">42/1312</text><rect x="331" y="387" width="64" height="26" rx="3" fill="#147d80" opacity="0.13882621951219512"/><text x="338" y="405">38/1312</text><rect x="399" y="387" width="64" height="26" rx="3" fill="#147d80" opacity="0.13238567073170732"/><text x="406" y="405">25/1312</text><rect x="467" y="387" width="64" height="26" rx="3" fill="#147d80" opacity="0.13139481707317072"/><text x="474" y="405">23/1312</text><rect x="535" y="387" width="64" height="26" rx="3" fill="#147d80" opacity="0.12891768292682926"/><text x="542" y="405">18/1312</text><rect x="603" y="387" width="64" height="26" rx="3" fill="#147d80" opacity="0.12990853658536586"/><text x="610" y="405">20/1312</text><rect x="671" y="387" width="64" height="26" rx="3" fill="#147d80" opacity="0.13189024390243903"/><text x="678" y="405">24/1312</text><text x="10" y="435">2024-02-05 (805)</text><rect x="195" y="417" width="64" height="26" rx="3" fill="#147d80" opacity="0.1531055900621118"/><text x="202" y="435">41/805</text><rect x="263" y="417" width="64" height="26" rx="3" fill="#147d80" opacity="0.14664596273291924"/><text x="270" y="435">33/805</text><rect x="331" y="417" width="64" height="26" rx="3" fill="#147d80" opacity="0.14583850931677017"/><text x="338" y="435">32/805</text><rect x="399" y="417" width="64" height="26" rx="3" fill="#147d80" opacity="0.1409937888198758"/><text x="406" y="435">26/805</text><rect x="467" y="417" width="64" height="26" rx="3" fill="#147d80" opacity="0.13937888198757764"/><text x="474" y="435">24/805</text><rect x="535" y="417" width="64" height="26" rx="3" fill="#147d80" opacity="0.13453416149068323"/><text x="542" y="435">18/805</text><rect x="603" y="417" width="64" height="26" rx="3" fill="#147d80" opacity="0.1353416149068323"/><text x="610" y="435">19/805</text><rect x="671" y="417" width="64" height="26" rx="3" fill="#147d80" opacity="0.13695652173913042"/><text x="678" y="435">21/805</text><text x="10" y="465">2024-02-12 (1045)</text><rect x="195" y="447" width="64" height="26" rx="3" fill="#147d80" opacity="0.14736842105263157"/><text x="202" y="465">44/1045</text><rect x="263" y="447" width="64" height="26" rx="3" fill="#147d80" opacity="0.1467464114832536"/><text x="270" y="465">43/1045</text><rect x="331" y="447" width="64" height="26" rx="3" fill="#147d80" opacity="0.14861244019138756"/><text x="338" y="465">46/1045</text><rect x="399" y="447" width="64" height="26" rx="3" fill="#147d80" opacity="0.1392822966507177"/><text x="406" y="465">31/1045</text><rect x="467" y="447" width="64" height="26" rx="3" fill="#147d80" opacity="0.13617224880382775"/><text x="474" y="465">26/1045</text><rect x="535" y="447" width="64" height="26" rx="3" fill="#147d80" opacity="0.14177033492822966"/><text x="542" y="465">35/1045</text><rect x="603" y="447" width="64" height="26" rx="3" fill="#147d80" opacity="0.1336842105263158"/><text x="610" y="465">22/1045</text><rect x="671" y="447" width="64" height="26" rx="3" fill="#147d80" opacity="0.1380382775119617"/><text x="678" y="465">29/1045</text><text x="10" y="495">2024-02-19 (676)</text><rect x="195" y="477" width="64" height="26" rx="3" fill="#147d80" opacity="0.15653846153846154"/><text x="202" y="495">38/676</text><rect x="263" y="477" width="64" height="26" rx="3" fill="#147d80" opacity="0.1546153846153846"/><text x="270" y="495">36/676</text><rect x="331" y="477" width="64" height="26" rx="3" fill="#147d80" opacity="0.15557692307692308"/><text x="338" y="495">37/676</text><rect x="399" y="477" width="64" height="26" rx="3" fill="#147d80" opacity="0.145"/><text x="406" y="495">26/676</text><rect x="467" y="477" width="64" height="26" rx="3" fill="#147d80" opacity="0.14211538461538462"/><text x="474" y="495">23/676</text><rect x="535" y="477" width="64" height="26" rx="3" fill="#147d80" opacity="0.13826923076923076"/><text x="542" y="495">19/676</text><rect x="603" y="477" width="64" height="26" rx="3" fill="#147d80" opacity="0.13826923076923076"/><text x="610" y="495">19/676</text><rect x="671" y="477" width="64" height="26" rx="3" fill="#147d80" opacity="0.1498076923076923"/><text x="678" y="495">31/676</text><text x="10" y="525">2024-02-26 (1027)</text><rect x="195" y="507" width="64" height="26" rx="3" fill="#147d80" opacity="0.1649367088607595"/><text x="202" y="525">71/1027</text><rect x="263" y="507" width="64" height="26" rx="3" fill="#147d80" opacity="0.1611392405063291"/><text x="270" y="525">65/1027</text><rect x="331" y="507" width="64" height="26" rx="3" fill="#147d80" opacity="0.1681012658227848"/><text x="338" y="525">76/1027</text><rect x="399" y="507" width="64" height="26" rx="3" fill="#147d80" opacity="0.1478481012658228"/><text x="406" y="525">44/1027</text><rect x="467" y="507" width="64" height="26" rx="3" fill="#147d80" opacity="0.14278481012658228"/><text x="474" y="525">36/1027</text><rect x="535" y="507" width="64" height="26" rx="3" fill="#147d80" opacity="0.1440506329113924"/><text x="542" y="525">38/1027</text><rect x="603" y="507" width="64" height="26" rx="3" fill="#147d80" opacity="0.13962025316455695"/><text x="610" y="525">31/1027</text><rect x="671" y="507" width="64" height="26" rx="3" fill="#147d80" opacity="0.14531645569620252"/><text x="678" y="525">40/1027</text><text x="10" y="555">2024-03-04 (1126)</text><rect x="195" y="537" width="64" height="26" rx="3" fill="#147d80" opacity="0.17079928952042628"/><text x="202" y="555">88/1126</text><rect x="263" y="537" width="64" height="26" rx="3" fill="#147d80" opacity="0.1661811722912966"/><text x="270" y="555">80/1126</text><rect x="331" y="537" width="64" height="26" rx="3" fill="#147d80" opacity="0.16791296625222024"/><text x="338" y="555">83/1126</text><rect x="399" y="537" width="64" height="26" rx="3" fill="#147d80" opacity="0.15348134991119006"/><text x="406" y="555">58/1126</text><rect x="467" y="537" width="64" height="26" rx="3" fill="#147d80" opacity="0.14482238010657195"/><text x="474" y="555">43/1126</text><rect x="535" y="537" width="64" height="26" rx="3" fill="#147d80" opacity="0.14482238010657195"/><text x="542" y="555">43/1126</text><rect x="603" y="537" width="64" height="26" rx="3" fill="#147d80" opacity="0.13154529307282414"/><text x="610" y="555">20/1126</text><rect x="671" y="537" width="64" height="26" rx="3" fill="#147d80" opacity="0.15059502664298402"/><text x="678" y="555">53/1126</text><text x="10" y="585">2024-03-11 (1088)</text><rect x="195" y="567" width="64" height="26" rx="3" fill="#147d80" opacity="0.20722426470588234"/><text x="202" y="585">146/1088</text><rect x="263" y="567" width="64" height="26" rx="3" fill="#147d80" opacity="0.1845220588235294"/><text x="270" y="585">108/1088</text><rect x="331" y="567" width="64" height="26" rx="3" fill="#147d80" opacity="0.1928860294117647"/><text x="338" y="585">122/1088</text><rect x="399" y="567" width="64" height="26" rx="3" fill="#147d80" opacity="0.16301470588235295"/><text x="406" y="585">72/1088</text><rect x="467" y="567" width="64" height="26" rx="3" fill="#147d80" opacity="0.15644301470588234"/><text x="474" y="585">61/1088</text><rect x="535" y="567" width="64" height="26" rx="3" fill="#147d80" opacity="0.15106617647058823"/><text x="542" y="585">52/1088</text><rect x="603" y="567" width="64" height="26" rx="3" fill="#147d80" opacity="0.14807904411764705"/><text x="610" y="585">47/1088</text><rect x="671" y="567" width="64" height="26" rx="3" fill="#147d80" opacity="0.14807904411764705"/><text x="678" y="585">47/1088</text><text x="10" y="615">2024-03-18 (1455)</text><rect x="195" y="597" width="64" height="26" rx="3" fill="#147d80" opacity="0.22274914089347078"/><text x="202" y="615">230/1455</text><rect x="263" y="597" width="64" height="26" rx="3" fill="#147d80" opacity="0.19058419243986255"/><text x="270" y="615">158/1455</text><rect x="331" y="597" width="64" height="26" rx="3" fill="#147d80" opacity="0.18745704467353952"/><text x="338" y="615">151/1455</text><rect x="399" y="597" width="64" height="26" rx="3" fill="#147d80" opacity="0.1597594501718213"/><text x="406" y="615">89/1455</text><rect x="467" y="597" width="64" height="26" rx="3" fill="#147d80" opacity="0.15171821305841923"/><text x="474" y="615">71/1455</text><rect x="535" y="597" width="64" height="26" rx="3" fill="#147d80" opacity="0.14903780068728523"/><text x="542" y="615">65/1455</text><rect x="603" y="597" width="64" height="26" rx="3" fill="#147d80" opacity="0.14233676975945017"/><text x="610" y="615">50/1455</text><rect x="671" y="597" width="64" height="26" rx="3" fill="#147d80" opacity="0.1454639175257732"/><text x="678" y="615">57/1455</text><text x="10" y="645">2024-03-25 (328)</text><rect x="195" y="627" width="64" height="26" rx="3" fill="#147d80" opacity="0.25079268292682927"/><text x="202" y="645">66/328</text><rect x="263" y="627" width="64" height="26" rx="3" fill="#147d80" opacity="0.18935975609756098"/><text x="270" y="645">35/328</text><rect x="331" y="627" width="64" height="26" rx="3" fill="#147d80" opacity="0.1873780487804878"/><text x="338" y="645">34/328</text><rect x="399" y="627" width="64" height="26" rx="3" fill="#147d80" opacity="0.1616158536585366"/><text x="406" y="645">21/328</text><rect x="467" y="627" width="64" height="26" rx="3" fill="#147d80" opacity="0.15170731707317073"/><text x="474" y="645">16/328</text><rect x="535" y="627" width="64" height="26" rx="3" fill="#147d80" opacity="0.15567073170731707"/><text x="542" y="645">18/328</text><rect x="603" y="627" width="64" height="26" rx="3" fill="#147d80" opacity="0.14774390243902438"/><text x="610" y="645">14/328</text><rect x="671" y="627" width="64" height="26" rx="3" fill="#147d80" opacity="0.14378048780487804"/><text x="678" y="645">12/328</text></svg>